<?xml version="1.0" encoding="UTF-8" standalone="no"?>
<svg width="135px" height="77px" viewBox="0 0 135 77" version="1.1" xmlns="http://www.w3.org/2000/svg" xmlns:xlink="http://www.w3.org/1999/xlink">
    <!-- Generator: Sketch 39.1 (31720) - http://www.bohemiancoding.com/sketch -->
    <title>Fill 1</title>
    <desc>Created with Sketch.</desc>
    <defs></defs>
    <g id="Page-1" stroke="none" stroke-width="1" fill="none" fill-rule="evenodd">
        <g id="Desktop-HD" transform="translate(-733.000000, -886.000000)" fill="#292F36">
            <g id="Group-19" transform="translate(-1.000000, 0.000000)">
                <g id="Group-7" transform="translate(334.000000, 831.000000)">
                    <g id="Group-4" transform="translate(355.000000, 0.000000)">
                        <g id="Group-5">
                            <path d="M173.656962,123.517115 C165.269087,122.555628 156.993088,122.08886 148.451385,122.08886 C135.409485,122.08886 123.435996,123.192893 111.854073,124.26059 C100.39801,125.317108 88.5503816,126.40996 75.7657952,126.40996 C67.2352793,126.40996 58.9760617,125.932012 50.5937809,124.948165 L50.5937809,63.477295 C58.9844524,64.4387818 67.2660451,64.9083451 75.8077486,64.9083451 C88.8440551,64.9083451 100.82034,63.8043123 112.39667,62.7366148 C123.849936,61.6828923 135.694767,60.5900396 148.476557,60.5900396 C157.00987,60.5900396 165.271884,61.070783 173.656962,62.0546299 L173.656962,123.517115 L173.656962,123.517115 Z M176.809057,56.8083778 C167.34438,55.5925442 158.075485,55 148.476557,55 C135.437453,55 123.463965,56.1040328 111.884839,57.1717304 C100.431572,58.2254528 88.589538,59.3183056 75.8077486,59.3183056 C66.4381655,59.3183056 57.3930217,58.7397365 48.1548925,57.5518531 C47.3465911,57.4512323 46.5522742,57.6916041 45.9509428,58.2226578 C45.3468144,58.7537116 45,59.519547 45,60.3217177 L45,127.418963 C45,128.824858 46.046037,130.012741 47.4416854,130.191622 C56.9035659,131.407456 66.1668671,132 75.7657952,132 C88.8076955,132 100.78398,130.893172 112.365904,129.825475 C123.821967,128.768957 135.669595,127.678899 148.451385,127.678899 C157.818171,127.678899 166.860518,128.254673 176.09585,129.442557 C176.895761,129.537588 177.698469,129.302806 178.2998,128.771752 C178.903928,128.240698 179.250743,127.474863 179.250743,126.672692 L179.250743,59.5810374 C179.250743,58.1751425 178.204706,56.9872591 176.809057,56.8083778 L176.809057,56.8083778 Z M145.895027,68.9778939 C145.895027,70.5207449 147.148034,71.7729137 148.691917,71.7729137 C154.389183,71.7729137 159.915839,71.9937203 165.585136,72.4493085 C165.660652,72.4548985 165.736168,72.4576936 165.811684,72.4576936 C167.254879,72.4576936 168.477121,71.3508657 168.59459,69.8862754 C168.72045,68.3490145 167.573725,67.0018149 166.032638,66.8788341 C160.212309,66.4092708 154.540215,66.1828742 148.691917,66.1828742 C147.148034,66.1828742 145.895027,67.432248 145.895027,68.9778939 L145.895027,68.9778939 Z M111.585572,89.336818 L109.541045,88.3250209 C105.73168,86.4495626 105.73168,86.2483212 105.73168,84.957022 C105.73168,82.7126211 107.985973,82.3772188 109.328481,82.3772188 C110.928302,82.3772188 112.835782,82.8244219 112.835782,84.957022 C112.835782,86.499873 114.088788,87.7520418 115.632672,87.7520418 C117.176556,87.7520418 118.429562,86.499873 118.429562,84.957022 C118.429562,81.0467894 115.931939,78.1287887 112.125371,77.1617119 L112.125371,75.5741406 C112.125371,74.0312897 110.872364,72.7791208 109.328481,72.7791208 C107.784597,72.7791208 106.53159,74.0312897 106.53159,75.5741406 L106.53159,77.1533268 C102.671882,78.1120186 100.137899,81.0356093 100.137899,84.957022 C100.137899,89.9237722 103.348729,91.5085484 107.068593,93.3392864 L109.110323,94.3510835 C112.925282,96.2321318 112.925282,96.4305782 112.925282,97.7246724 C112.925282,99.929943 110.670988,100.259755 109.328481,100.259755 C107.985973,100.259755 105.73168,99.929943 105.73168,97.7246724 C105.73168,96.1818215 104.478673,94.9296526 102.934789,94.9296526 C101.390906,94.9296526 100.137899,96.1818215 100.137899,97.7246724 C100.137899,101.623725 102.671882,104.530546 106.53159,105.483647 L106.53159,106.319358 C106.53159,107.865004 107.784597,109.114378 109.328481,109.114378 C110.872364,109.114378 112.125371,107.865004 112.125371,106.319358 L112.125371,105.483647 C115.98508,104.530546 118.519063,101.623725 118.519063,97.7246724 C118.519063,92.7551272 115.305436,91.173146 111.585572,89.336818 L111.585572,89.336818 Z M76.6216437,115.235471 C70.9915032,115.235471 65.4704414,115.01187 59.7452066,114.553487 C58.1985261,114.416531 56.8560187,115.576464 56.7329555,117.11652 C56.6098924,118.653781 57.7566175,120.003775 59.2977041,120.123961 C65.1711741,120.596319 70.8376742,120.825511 76.6216437,120.825511 C78.1655272,120.825511 79.4185342,119.576137 79.4185342,118.030491 C79.4185342,116.48764 78.1655272,115.235471 76.6216437,115.235471 L76.6216437,115.235471 Z" id="Fill-1"></path>
                        </g>
                    </g>
                </g>
            </g>
        </g>
    </g>
</svg>