<?xml version="1.0" encoding="UTF-8" standalone="no"?>
<svg width="1479px" height="323px" viewBox="0 0 1479 323" version="1.1" xmlns="http://www.w3.org/2000/svg" xmlns:xlink="http://www.w3.org/1999/xlink">
    <!-- Generator: Sketch 39.1 (31720) - http://www.bohemiancoding.com/sketch -->
    <title>ezhs_logo_outlines</title>
    <desc>Created with Sketch.</desc>
    <defs>
        <linearGradient x1="50%" y1="0%" x2="50%" y2="55.8827953%" id="linearGradient-1">
            <stop stop-color="#4D8ADB" offset="0%"></stop>
            <stop stop-color="#643B62" offset="100%"></stop>
        </linearGradient>
        <circle id="path-2" cx="161.5" cy="161.5" r="161.5"></circle>
        <rect id="path-4" x="0" y="0" width="445" height="314.563758"></rect>
    </defs>
    <g id="Page-1" stroke="none" stroke-width="1" fill="none" fill-rule="evenodd">
        <g id="ezhs_logo_outlines">
            <g id="Path-6-+-Path-5-+-Path-4-Mask">
                <mask id="mask-3" fill="white">
                    <use xlink:href="#path-2"></use>
                </mask>
                <use id="Mask" fill="url(#linearGradient-1)" opacity="0.290869869" xlink:href="#path-2"></use>
                <g mask="url(#mask-3)">
                    <g transform="translate(-64.000000, 8.329605)">
                        <mask id="mask-5" fill="white">
                            <use xlink:href="#path-4"></use>
                        </mask>
                        <g id="Mask" stroke="none" fill="none"></g>
                        <path d="M-33.9932513,148.899785 C-33.9932513,148.899785 85.0683564,64.0227034 214.245253,123.395422 C343.42215,182.768141 381.441432,209.021054 381.441432,209.021054 L380.619276,280.50947 L-31.0371879,254.606181 L-33.9932513,148.899785 Z" id="Path-6" stroke="none" fill="#C57246" fill-rule="evenodd" mask="url(#mask-5)"></path>
                        <path d="M126.939578,213.607863 C126.939578,213.607863 210.787092,155.875667 333.799353,140.685107 C456.811614,125.494547 604.134432,286.194446 604.134432,286.194446 L150.855979,272.693718 L126.939578,213.607863 Z" id="Path-5" stroke="none" fill="#ABA633" fill-rule="evenodd" mask="url(#mask-5)"></path>
                        <path d="M-66.3282741,196.73378 C-66.3282741,196.73378 64.4590451,101.896995 150.625226,169.23927 C236.791407,236.581545 470.520555,196.877214 470.520555,196.877214 L470.520555,346.770255 L-57.18073,346.770255" id="Path-4" stroke="none" fill="#6B4086" fill-rule="evenodd" mask="url(#mask-5)"></path>
                    </g>
                </g>
            </g>
            <g id="text" transform="translate(46.000000, 91.000000)">
                <path d="M49.54,127.8 C42.2199634,127.8 35.56003,126.510013 29.56,123.93 C23.55997,121.349987 18.4300213,117.840022 14.17,113.4 C9.9099787,108.959978 6.6100117,103.800029 4.27,97.92 C1.9299883,92.0399706 0.76,85.800033 0.76,79.2 C0.76,72.599967 1.9299883,66.3300297 4.27,60.39 C6.6100117,54.4499703 9.9099787,49.2300225 14.17,44.73 C18.4300213,40.2299775 23.55997,36.6900129 29.56,34.11 C35.56003,31.5299871 42.2799628,30.24 49.72,30.24 C57.0400366,30.24 63.6699703,31.5599868 69.61,34.2 C75.5500297,36.8400132 80.619979,40.3499781 84.82,44.73 C89.020021,49.1100219 92.2299889,54.2099709 94.45,60.03 C96.6700111,65.8500291 97.78,71.9399682 97.78,78.3 C97.78,79.7400072 97.7200006,81.0899937 97.6,82.35 C97.4799994,83.6100063 97.3600006,84.6599958 97.24,85.5 L21.82,85.5 C22.1800018,89.700021 23.1699919,93.4799832 24.79,96.84 C26.4100081,100.200017 28.5099871,103.109988 31.09,105.57 C33.6700129,108.030012 36.6099835,109.919993 39.91,111.24 C43.2100165,112.560007 46.659982,113.22 50.26,113.22 C52.9000132,113.22 55.5099871,112.890003 58.09,112.23 C60.6700129,111.569997 63.0399892,110.610006 65.2,109.35 C67.3600108,108.089994 69.2799916,106.560009 70.96,104.76 C72.6400084,102.959991 73.9599952,100.980011 74.92,98.82 L91.84,103.68 C88.5999838,110.760035 83.2300375,116.549978 75.73,121.05 C68.2299625,125.550023 59.5000498,127.8 49.54,127.8 L49.54,127.8 Z M78.16,71.82 C77.7999982,67.8599802 76.8100081,64.2000168 75.19,60.84 C73.5699919,57.4799832 71.5000126,54.6300117 68.98,52.29 C66.4599874,49.9499883 63.5200168,48.1200066 60.16,46.8 C56.7999832,45.4799934 53.2600186,44.82 49.54,44.82 C45.8199814,44.82 42.3100165,45.4799934 39.01,46.8 C35.7099835,48.1200066 32.8000126,49.9499883 30.28,52.29 C27.7599874,54.6300117 25.7200078,57.4799832 24.16,60.84 C22.5999922,64.2000168 21.6400018,67.8599802 21.28,71.82 L78.16,71.82 Z M151.6,113.58 L208.12,45.9 L153.58,45.9 L153.58,31.86 L229,31.86 L229,44.28 L172.84,111.96 L229.54,111.96 L229.54,126 L151.6,126 L151.6,113.58 Z" id="e-z" fill="#FFFFFF"></path>
                <ellipse id="Oval-6" fill="#FFFFFF" cx="126" cy="73" rx="13" ry="13"></ellipse>
                <path d="M396.34,132 L384.1,132 L384.1,79.62 C384.1,68.9399466 382.270018,60.9600264 378.61,55.68 C374.949982,50.3999736 369.580035,47.76 362.5,47.76 C359.019983,47.76 355.570017,48.4499931 352.15,49.83 C348.729983,51.2100069 345.520015,53.099988 342.52,55.5 C339.519985,57.900012 336.910011,60.7199838 334.69,63.96 C332.469989,67.2000162 330.820005,70.7399808 329.74,74.58 L329.74,132 L317.5,132 L317.5,0.6 L329.74,0.6 L329.74,59.46 C333.460019,52.3799646 338.619967,46.8000204 345.22,42.72 C351.820033,38.6399796 358.959962,36.6 366.64,36.6 C372.040027,36.6 376.599981,37.5899901 380.32,39.57 C384.040019,41.5500099 387.099988,44.3099823 389.5,47.85 C391.900012,51.3900177 393.639995,55.6499751 394.72,60.63 C395.800005,65.6100249 396.34,71.09997 396.34,77.1 L396.34,132 Z M462.4,133.8 C455.559966,133.8 449.320028,132.510013 443.68,129.93 C438.039972,127.349987 433.150021,123.840022 429.01,119.4 C424.869979,114.959978 421.660011,109.800029 419.38,103.92 C417.099989,98.0399706 415.96,91.8600324 415.96,85.38 C415.96,78.779967 417.129988,72.5400294 419.47,66.66 C421.810012,60.7799706 425.049979,55.6200222 429.19,51.18 C433.330021,46.7399778 438.219972,43.2000132 443.86,40.56 C449.500028,37.9199868 455.679966,36.6 462.4,36.6 C469.120034,36.6 475.329971,37.9199868 481.03,40.56 C486.730029,43.2000132 491.649979,46.7399778 495.79,51.18 C499.930021,55.6200222 503.169988,60.7799706 505.51,66.66 C507.850012,72.5400294 509.02,78.779967 509.02,85.38 C509.02,91.8600324 507.880011,98.0399706 505.6,103.92 C503.319989,109.800029 500.110021,114.959978 495.97,119.4 C491.829979,123.840022 486.910028,127.349987 481.21,129.93 C475.509972,132.510013 469.240034,133.8 462.4,133.8 L462.4,133.8 Z M428.38,85.56 C428.38,90.8400264 429.279991,95.7299775 431.08,100.23 C432.880009,104.730023 435.309985,108.689983 438.37,112.11 C441.430015,115.530017 445.029979,118.19999 449.17,120.12 C453.310021,122.04001 457.719977,123 462.4,123 C467.080023,123 471.489979,122.01001 475.63,120.03 C479.770021,118.04999 483.399984,115.350017 486.52,111.93 C489.640016,108.509983 492.099991,104.520023 493.9,99.96 C495.700009,95.3999772 496.6,90.4800264 496.6,85.2 C496.6,80.0399742 495.700009,75.1500231 493.9,70.53 C492.099991,65.9099769 489.640016,61.8900171 486.52,58.47 C483.399984,55.0499829 479.770021,52.3500099 475.63,50.37 C471.489979,48.3899901 467.080023,47.4 462.4,47.4 C457.719977,47.4 453.34002,48.3899901 449.26,50.37 C445.17998,52.3500099 441.580016,55.0799826 438.46,58.56 C435.339984,62.0400174 432.880009,66.0899769 431.08,70.71 C429.279991,75.3300231 428.38,80.2799736 428.38,85.56 L428.38,85.56 Z M669.04,132 L656.8,132 L656.8,79.62 C656.8,68.6999454 655.060017,60.6600258 651.58,55.5 C648.099983,50.3399742 642.940034,47.76 636.1,47.76 C632.499982,47.76 629.110016,48.4199934 625.93,49.74 C622.749984,51.0600066 619.810013,52.919988 617.11,55.32 C614.409987,57.720012 612.04001,60.5699835 610,63.87 C607.95999,67.1700165 606.400005,70.7999802 605.32,74.76 L605.32,132 L593.08,132 L593.08,79.62 C593.08,68.4599442 591.400017,60.3600252 588.04,55.32 C584.679983,50.2799748 579.520035,47.76 572.56,47.76 C565.479965,47.76 559.180028,50.2199754 553.66,55.14 C548.139972,60.0600246 544.180012,66.5399598 541.78,74.58 L541.78,132 L529.54,132 L529.54,38.22 L540.7,38.22 L540.7,59.46 C544.540019,52.259964 549.579969,46.6500201 555.82,42.63 C562.060031,38.6099799 568.959962,36.6 576.52,36.6 C584.44004,36.6 590.769976,38.8199778 595.51,43.26 C600.250024,47.7000222 603.159995,53.519964 604.24,60.72 C613.000044,44.6399196 625.059923,36.6 640.42,36.6 C645.700026,36.6 650.169982,37.5599904 653.83,39.48 C657.490018,41.4000096 660.429989,44.1299823 662.65,47.67 C664.870011,51.2100177 666.489995,55.4699751 667.51,60.45 C668.530005,65.4300249 669.04,70.9799694 669.04,77.1 L669.04,132 Z M735.46,133.8 C728.619966,133.8 722.350029,132.510013 716.65,129.93 C710.949971,127.349987 706.000021,123.810023 701.8,119.31 C697.599979,114.809978 694.330012,109.620029 691.99,103.74 C689.649988,97.8599706 688.48,91.5600336 688.48,84.84 C688.48,78.239967 689.649988,72.0300291 691.99,66.21 C694.330012,60.3899709 697.569979,55.2900219 701.71,50.91 C705.850021,46.5299781 710.799971,43.0500129 716.56,40.47 C722.320029,37.8899871 728.559966,36.6 735.28,36.6 C742.120034,36.6 748.389972,37.8899871 754.09,40.47 C759.790029,43.0500129 764.67998,46.5599778 768.76,51 C772.84002,55.4400222 776.019989,60.5399712 778.3,66.3 C780.580011,72.0600288 781.72,78.1799676 781.72,84.66 C781.72,85.6200048 781.72,86.5799952 781.72,87.54 C781.72,88.5000048 781.660001,89.1599982 781.54,89.52 L701.26,89.52 C701.620002,94.5600252 702.78999,99.2099787 704.77,103.47 C706.75001,107.730021 709.299984,111.419984 712.42,114.54 C715.540016,117.660016 719.10998,120.089991 723.13,121.83 C727.15002,123.570009 731.439977,124.44 736,124.44 C739.000015,124.44 741.999985,124.020004 745,123.18 C748.000015,122.339996 750.759987,121.200007 753.28,119.76 C755.800013,118.319993 758.07999,116.55001 760.12,114.45 C762.16001,112.34999 763.719995,110.040013 764.8,107.52 L775.42,110.4 C773.979993,113.880017 771.940013,117.029986 769.3,119.85 C766.659987,122.670014 763.600017,125.12999 760.12,127.23 C756.639983,129.330011 752.800021,130.949994 748.6,132.09 C744.399979,133.230006 740.020023,133.8 735.46,133.8 L735.46,133.8 Z M770.02,80.16 C769.659998,75.1199748 768.49001,70.5300207 766.51,66.39 C764.52999,62.2499793 762.010015,58.680015 758.95,55.68 C755.889985,52.679985 752.35002,50.3400084 748.33,48.66 C744.30998,46.9799916 740.020023,46.14 735.46,46.14 C730.899977,46.14 726.58002,46.9799916 722.5,48.66 C718.41998,50.3400084 714.850015,52.679985 711.79,55.68 C708.729985,58.680015 706.270009,62.279979 704.41,66.48 C702.549991,70.680021 701.440002,75.2399754 701.08,80.16 L770.02,80.16 Z M877.66,133.8 C870.339963,133.8 863.200035,132.600012 856.24,130.2 C849.279965,127.799988 843.280025,124.320023 838.24,119.76 L843.82,111.48 C849.100026,115.800022 854.469973,119.039989 859.93,121.2 C865.390027,123.360011 871.239969,124.44 877.48,124.44 C885.040038,124.44 891.069977,122.910015 895.57,119.85 C900.070022,116.789985 902.32,112.440028 902.32,106.8 C902.32,104.159987 901.720006,101.970009 900.52,100.23 C899.319994,98.4899913 897.550012,96.9600066 895.21,95.64 C892.869988,94.3199934 889.930018,93.1500051 886.39,92.13 C882.849982,91.1099949 878.740023,90.0600054 874.06,88.98 C868.659973,87.6599934 863.98002,86.3400066 860.02,85.02 C856.05998,83.6999934 852.790013,82.2000084 850.21,80.52 C847.629987,78.8399916 845.710006,76.7700123 844.45,74.31 C843.189994,71.8499877 842.56,68.7600186 842.56,65.04 C842.56,60.3599766 843.489991,56.220018 845.35,52.62 C847.210009,49.019982 849.729984,46.0500117 852.91,43.71 C856.090016,41.3699883 859.809979,39.600006 864.07,38.4 C868.330021,37.199994 872.859976,36.6 877.66,36.6 C884.860036,36.6 891.399971,37.7699883 897.28,40.11 C903.160029,42.4500117 907.899982,45.5399808 911.5,49.38 L905.56,56.58 C902.079983,52.979982 897.850025,50.280009 892.87,48.48 C887.889975,46.679991 882.700027,45.78 877.3,45.78 C874.059984,45.78 871.060014,46.1099967 868.3,46.77 C865.539986,47.4300033 863.110011,48.4799928 861.01,49.92 C858.909989,51.3600072 857.260006,53.1899889 856.06,55.41 C854.859994,57.6300111 854.26,60.239985 854.26,63.24 C854.26,65.7600126 854.679996,67.7999922 855.52,69.36 C856.360004,70.9200078 857.73999,72.2699943 859.66,73.41 C861.58001,74.5500057 864.009985,75.5699955 866.95,76.47 C869.890015,77.3700045 873.459979,78.2999952 877.66,79.26 C883.66003,80.7000072 888.939977,82.1399928 893.5,83.58 C898.060023,85.0200072 901.869985,86.6999904 904.93,88.62 C907.990015,90.5400096 910.299992,92.8799862 911.86,95.64 C913.420008,98.4000138 914.2,101.75998 914.2,105.72 C914.2,114.360043 910.900033,121.199975 904.3,126.24 C897.699967,131.280025 888.820056,133.8 877.66,133.8 L877.66,133.8 Z M979.18,127.5 C978.459996,127.860002 977.410007,128.339997 976.03,128.94 C974.649993,129.540003 973.060009,130.139997 971.26,130.74 C969.459991,131.340003 967.420011,131.879998 965.14,132.36 C962.859989,132.840002 960.460013,133.08 957.94,133.08 C955.299987,133.08 952.780012,132.720004 950.38,132 C947.979988,131.279996 945.880009,130.170008 944.08,128.67 C942.279991,127.169993 940.840005,125.280011 939.76,123 C938.679995,120.719989 938.14,118.080015 938.14,115.08 L938.14,47.94 L925.18,47.94 L925.18,38.22 L938.14,38.22 L938.14,6.54 L950.38,6.54 L950.38,38.22 L971.98,38.22 L971.98,47.94 L950.38,47.94 L950.38,111.66 C950.620001,115.140017 951.849989,117.689992 954.07,119.31 C956.290011,120.930008 958.839986,121.74 961.72,121.74 C965.200017,121.74 968.259987,121.170006 970.9,120.03 C973.540013,118.889994 975.219996,118.080002 975.94,117.6 L979.18,127.5 Z M1018.06,133.8 C1013.61998,133.8 1009.51002,133.050007 1005.73,131.55 C1001.94998,130.049993 998.650014,127.980013 995.83,125.34 C993.009986,122.699987 990.820008,119.610018 989.26,116.07 C987.699992,112.529982 986.92,108.72002 986.92,104.64 C986.92,100.55998 987.87999,96.7800174 989.8,93.3 C991.72001,89.8199826 994.419983,86.8200126 997.9,84.3 C1001.38002,81.7799874 1005.51998,79.8300069 1010.32,78.45 C1015.12002,77.0699931 1020.39997,76.38 1026.16,76.38 C1030.96002,76.38 1035.81998,76.7999958 1040.74,77.64 C1045.66002,78.4800042 1050.03998,79.6799922 1053.88,81.24 L1053.88,72.78 C1053.88,64.4999586 1051.54002,57.9300243 1046.86,53.07 C1042.17998,48.2099757 1035.70004,45.78 1027.42,45.78 C1022.61998,45.78 1017.70003,46.7399904 1012.66,48.66 C1007.61997,50.5800096 1002.52003,53.339982 997.36,56.94 L993.04,48.84 C1005.16006,40.6799592 1016.91994,36.6 1028.32,36.6 C1040.08006,36.6 1049.31997,39.899967 1056.04,46.5 C1062.76003,53.100033 1066.12,62.2199418 1066.12,73.86 L1066.12,116.16 C1066.12,119.520017 1067.61998,121.2 1070.62,121.2 L1070.62,132 C1068.57999,132.360002 1067.02001,132.54 1065.94,132.54 C1062.81998,132.54 1060.39001,131.760008 1058.65,130.2 C1056.90999,128.639992 1055.98,126.480014 1055.86,123.72 L1055.5,116.34 C1051.17998,121.980028 1045.75003,126.299985 1039.21,129.3 C1032.66997,132.300015 1025.62004,133.8 1018.06,133.8 L1018.06,133.8 Z M1020.94,124.44 C1027.30003,124.44 1033.14997,123.240012 1038.49,120.84 C1043.83003,118.439988 1047.87999,115.26002 1050.64,111.3 C1051.72001,110.219995 1052.53,109.050006 1053.07,107.79 C1053.61,106.529994 1053.88,105.360005 1053.88,104.28 L1053.88,88.98 C1049.79998,87.4199922 1045.57002,86.2200042 1041.19,85.38 C1036.80998,84.5399958 1032.34002,84.12 1027.78,84.12 C1019.13996,84.12 1012.12003,85.919982 1006.72,89.52 C1001.31997,93.120018 998.62,97.8599706 998.62,103.74 C998.62,106.620014 999.189994,109.319987 1000.33,111.84 C1001.47001,114.360013 1003.02999,116.549991 1005.01,118.41 C1006.99001,120.270009 1009.35999,121.739995 1012.12,122.82 C1014.88001,123.900005 1017.81998,124.44 1020.94,124.44 L1020.94,124.44 Z M1130.2,133.26 C1123.71997,133.26 1117.81003,131.910014 1112.47,129.21 C1107.12997,126.509987 1102.51002,122.940022 1098.61,118.5 C1094.70998,114.059978 1091.68001,108.960029 1089.52,103.2 C1087.35999,97.4399712 1086.28,91.5000306 1086.28,85.38 C1086.28,78.8999676 1087.32999,72.6900297 1089.43,66.75 C1091.53001,60.8099703 1094.49998,55.6200222 1098.34,51.18 C1102.18002,46.7399778 1106.76997,43.2000132 1112.11,40.56 C1117.45003,37.9199868 1123.35997,36.6 1129.84,36.6 C1137.88004,36.6 1144.83997,38.6099799 1150.72,42.63 C1156.60003,46.6500201 1161.63998,51.7199694 1165.84,57.84 L1165.84,38.22 L1176.82,38.22 L1176.82,132.36 C1176.82,138.840032 1175.59001,144.569975 1173.13,149.55 C1170.66999,154.530025 1167.37002,158.699983 1163.23,162.06 C1159.08998,165.420017 1154.23003,167.939992 1148.65,169.62 C1143.06997,171.300008 1137.16003,172.14 1130.92,172.14 C1120.11995,172.14 1111.42003,170.220019 1104.82,166.38 C1098.21997,162.539981 1092.88002,157.380032 1088.8,150.9 L1096.36,144.96 C1100.08002,150.96003 1104.99997,155.369986 1111.12,158.19 C1117.24003,161.010014 1123.83996,162.42 1130.92,162.42 C1135.48002,162.42 1139.79998,161.790006 1143.88,160.53 C1147.96002,159.269994 1151.52998,157.410012 1154.59,154.95 C1157.65002,152.489988 1160.07999,149.370019 1161.88,145.59 C1163.68001,141.809981 1164.58,137.400025 1164.58,132.36 L1164.58,113.82 C1160.97998,119.82003 1156.06003,124.559983 1149.82,128.04 C1143.57997,131.520017 1137.04003,133.26 1130.2,133.26 L1130.2,133.26 Z M1133.62,123 C1137.22002,123 1140.75998,122.340007 1144.24,121.02 C1147.72002,119.699993 1150.86999,117.930011 1153.69,115.71 C1156.51001,113.489989 1158.87999,111.000014 1160.8,108.24 C1162.72001,105.479986 1163.98,102.660014 1164.58,99.78 L1164.58,70.8 C1163.25999,67.4399832 1161.46001,64.3200144 1159.18,61.44 C1156.89999,58.5599856 1154.32001,56.1000102 1151.44,54.06 C1148.55999,52.0199898 1145.47002,50.400006 1142.17,49.2 C1138.86998,47.999994 1135.54002,47.4 1132.18,47.4 C1126.89997,47.4 1122.19002,48.5099889 1118.05,50.73 C1113.90998,52.9500111 1110.40001,55.859982 1107.52,59.46 C1104.63999,63.060018 1102.45001,67.1399772 1100.95,71.7 C1099.44999,76.2600228 1098.7,80.8799766 1098.7,85.56 C1098.7,90.6000252 1099.59999,95.3999772 1101.4,99.96 C1103.20001,104.520023 1105.68998,108.509983 1108.87,111.93 C1112.05002,115.350017 1115.73998,118.04999 1119.94,120.03 C1124.14002,122.01001 1128.69998,123 1133.62,123 L1133.62,123 Z M1203.82,132 L1203.82,38.22 L1216.06,38.22 L1216.06,132 L1203.82,132 Z M1203.82,18.6 L1203.82,0.6 L1216.06,0.6 L1216.06,18.6 L1203.82,18.6 Z M1321.9,132 L1309.66,132 L1309.66,79.62 C1309.66,68.4599442 1308.01002,60.3600252 1304.71,55.32 C1301.40998,50.2799748 1296.34003,47.76 1289.5,47.76 C1285.89998,47.76 1282.30002,48.4199934 1278.7,49.74 C1275.09998,51.0600066 1271.77002,52.919988 1268.71,55.32 C1265.64998,57.720012 1262.92001,60.5699835 1260.52,63.87 C1258.11999,67.1700165 1256.38001,70.7399808 1255.3,74.58 L1255.3,132 L1243.06,132 L1243.06,38.22 L1254.22,38.22 L1254.22,59.46 C1258.06002,52.6199658 1263.54996,47.100021 1270.69,42.9 C1277.83004,38.699979 1285.59996,36.6 1294,36.6 C1299.16003,36.6 1303.53998,37.5599904 1307.14,39.48 C1310.74002,41.4000096 1313.61999,44.0999826 1315.78,47.58 C1317.94001,51.0600174 1319.5,55.3199748 1320.46,60.36 C1321.42,65.4000252 1321.9,70.9799694 1321.9,77.1 L1321.9,132 Z M1385.62,133.26 C1379.13997,133.26 1373.23003,131.910014 1367.89,129.21 C1362.54997,126.509987 1357.93002,122.940022 1354.03,118.5 C1350.12998,114.059978 1347.10001,108.960029 1344.94,103.2 C1342.77999,97.4399712 1341.7,91.5000306 1341.7,85.38 C1341.7,78.8999676 1342.74999,72.6900297 1344.85,66.75 C1346.95001,60.8099703 1349.91998,55.6200222 1353.76,51.18 C1357.60002,46.7399778 1362.18997,43.2000132 1367.53,40.56 C1372.87003,37.9199868 1378.77997,36.6 1385.26,36.6 C1393.30004,36.6 1400.25997,38.6099799 1406.14,42.63 C1412.02003,46.6500201 1417.05998,51.7199694 1421.26,57.84 L1421.26,38.22 L1432.24,38.22 L1432.24,132.36 C1432.24,138.840032 1431.01001,144.569975 1428.55,149.55 C1426.08999,154.530025 1422.79002,158.699983 1418.65,162.06 C1414.50998,165.420017 1409.65003,167.939992 1404.07,169.62 C1398.48997,171.300008 1392.58003,172.14 1386.34,172.14 C1375.53995,172.14 1366.84003,170.220019 1360.24,166.38 C1353.63997,162.539981 1348.30002,157.380032 1344.22,150.9 L1351.78,144.96 C1355.50002,150.96003 1360.41997,155.369986 1366.54,158.19 C1372.66003,161.010014 1379.25996,162.42 1386.34,162.42 C1390.90002,162.42 1395.21998,161.790006 1399.3,160.53 C1403.38002,159.269994 1406.94998,157.410012 1410.01,154.95 C1413.07002,152.489988 1415.49999,149.370019 1417.3,145.59 C1419.10001,141.809981 1420,137.400025 1420,132.36 L1420,113.82 C1416.39998,119.82003 1411.48003,124.559983 1405.24,128.04 C1398.99997,131.520017 1392.46003,133.26 1385.62,133.26 L1385.62,133.26 Z M1389.04,123 C1392.64002,123 1396.17998,122.340007 1399.66,121.02 C1403.14002,119.699993 1406.28999,117.930011 1409.11,115.71 C1411.93001,113.489989 1414.29999,111.000014 1416.22,108.24 C1418.14001,105.479986 1419.4,102.660014 1420,99.78 L1420,70.8 C1418.67999,67.4399832 1416.88001,64.3200144 1414.6,61.44 C1412.31999,58.5599856 1409.74001,56.1000102 1406.86,54.06 C1403.97999,52.0199898 1400.89002,50.400006 1397.59,49.2 C1394.28998,47.999994 1390.96002,47.4 1387.6,47.4 C1382.31997,47.4 1377.61002,48.5099889 1373.47,50.73 C1369.32998,52.9500111 1365.82001,55.859982 1362.94,59.46 C1360.05999,63.060018 1357.87001,67.1399772 1356.37,71.7 C1354.86999,76.2600228 1354.12,80.8799766 1354.12,85.56 C1354.12,90.6000252 1355.01999,95.3999772 1356.82,99.96 C1358.62001,104.520023 1361.10998,108.509983 1364.29,111.93 C1367.47002,115.350017 1371.15998,118.04999 1375.36,120.03 C1379.56002,122.01001 1384.11998,123 1389.04,123 L1389.04,123 Z" id="home-staging" fill="#6B4086"></path>
            </g>
        </g>
    </g>
</svg>