<?xml version="1.0" encoding="UTF-8" standalone="no"?>
<svg width="96px" height="107px" viewBox="0 0 96 107" version="1.1" xmlns="http://www.w3.org/2000/svg" xmlns:xlink="http://www.w3.org/1999/xlink">
    <!-- Generator: Sketch 39.1 (31720) - http://www.bohemiancoding.com/sketch -->
    <title>timer</title>
    <desc>Created with Sketch.</desc>
    <defs></defs>
    <g id="Page-1" stroke="none" stroke-width="1" fill="none" fill-rule="evenodd">
        <g id="Desktop-HD" transform="translate(-1109.000000, -864.000000)" fill="#292F36">
            <g id="Group-19" transform="translate(-1.000000, 0.000000)">
                <g id="Group-7" transform="translate(334.000000, 831.000000)">
                    <g id="Group-6" transform="translate(710.000000, 0.000000)">
                        <path d="M66,91.8084556 C66,118.396894 87.5017836,140 113.965517,140 C140.429251,140 161.931034,118.396894 161.931034,91.8084556 C161.931034,78.6065574 156.601533,66.5125108 147.964064,57.8343399 L151.73147,54.0491803 L153.477342,55.8032787 C154.212446,56.5418464 155.131325,56.9111303 156.142093,56.9111303 C157.15286,56.9111303 158.07174,56.5418464 158.806844,55.8032787 C160.277051,54.3261432 160.277051,51.9257981 158.806844,50.4486626 L150.077487,41.6781708 C148.60728,40.2010354 146.218193,40.2010354 144.747985,41.6781708 C143.277778,43.1553063 143.277778,45.5556514 144.747985,47.0327869 L146.493857,48.7868852 L142.358898,52.9413287 C135.375413,47.7713546 127.013608,44.5401208 117.824812,43.8015531 L117.824812,40.5703192 L126.186616,40.5703192 C128.30004,40.5703192 129.954023,38.9085418 129.954023,36.7851596 C129.954023,34.6617774 128.30004,33 126.186616,33 L101.376866,33 C99.263443,33 97.6094596,34.6617774 97.6094596,36.7851596 C97.6094596,38.9085418 99.263443,40.5703192 101.376866,40.5703192 L110.289999,40.5703192 L110.289999,43.8015531 C85.4802484,45.7402934 66,66.5125108 66,91.8084556 L66,91.8084556 Z M113.965517,51.1872304 C136.294293,51.1872304 154.488109,69.4667817 154.488109,91.9007765 C154.488109,114.334771 136.294293,132.614323 113.965517,132.614323 C91.636742,132.614323 73.4429251,114.334771 73.4429251,91.9007765 C73.4429251,69.3744607 91.636742,51.1872304 113.965517,51.1872304 L113.965517,51.1872304 Z M113.965517,94.9473684 L130.045911,94.9473684 C132.159334,94.9473684 133.813317,93.285591 133.813317,91.1622088 C133.813317,89.0388266 132.159334,87.3770492 130.045911,87.3770492 L117.732924,87.3770492 L117.732924,67.8973253 C117.732924,65.7739431 116.07894,64.1121657 113.965517,64.1121657 C111.852094,64.1121657 110.198111,65.7739431 110.198111,67.8973253 L110.198111,91.2545298 C110.198111,93.285591 111.852094,94.9473684 113.965517,94.9473684 L113.965517,94.9473684 Z" id="timer"></path>
                    </g>
                </g>
            </g>
        </g>
    </g>
</svg>