<?xml version="1.0" encoding="UTF-8" standalone="no"?>
<svg width="92px" height="119px" viewBox="0 0 92 119" version="1.1" xmlns="http://www.w3.org/2000/svg" xmlns:xlink="http://www.w3.org/1999/xlink">
    <!-- Generator: Sketch 39.1 (31720) - http://www.bohemiancoding.com/sketch -->
    <title>paint</title>
    <desc>Created with Sketch.</desc>
    <defs></defs>
    <g id="Page-1" stroke="none" stroke-width="1" fill="none" fill-rule="evenodd">
        <g id="Desktop-HD" transform="translate(-404.000000, -863.000000)" fill="#292F36">
            <g id="Group-19" transform="translate(-1.000000, 0.000000)">
                <g id="Group-7" transform="translate(334.000000, 831.000000)">
                    <g id="Group-4" transform="translate(4.000000, 0.000000)">
                        <g id="Group">
                            <path d="M113.050941,150.577778 C115.394241,150.577778 117.228128,148.635556 117.228128,146.386667 L117.228128,110.404444 L154.822813,110.404444 C157.166113,110.404444 159,108.462222 159,106.213333 L159,91.1866667 L159,36.1911111 C159,33.84 157.06423,32 154.822813,32 L134.344408,32 L134.03876,32 L133.733112,32 L113.458472,32 L113.152824,32 L112.847176,32 L92.4706534,32 L92.1650055,32 L91.8593577,32 L71.1771872,32 C68.833887,32 67,33.9422222 67,36.1911111 L67,91.1866667 L67,106.111111 C67,108.462222 68.9357697,110.302222 71.1771872,110.302222 L108.771872,110.302222 L108.771872,146.284444 C108.771872,148.737778 110.707641,150.577778 113.050941,150.577778 L113.050941,150.577778 Z M75.4562569,40.4844444 L87.8859358,40.4844444 L87.8859358,55.3066667 C87.8859358,57.6577778 89.8217054,59.4977778 92.0631229,59.4977778 C94.406423,59.4977778 96.2403101,57.5555556 96.2403101,55.3066667 L96.2403101,40.4844444 L108.873754,40.4844444 L108.873754,64.7111111 C108.873754,67.0622222 110.809524,68.9022222 113.050941,68.9022222 C115.394241,68.9022222 117.228128,66.96 117.228128,64.7111111 L117.228128,40.4844444 L129.657807,40.4844444 L129.657807,55.3066667 C129.657807,57.6577778 131.593577,59.4977778 133.834994,59.4977778 C136.178295,59.4977778 138.012182,57.5555556 138.012182,55.3066667 L138.012182,40.4844444 L150.44186,40.4844444 L150.44186,86.9955556 L75.4562569,86.9955556 L75.4562569,40.4844444 L75.4562569,40.4844444 Z M75.4562569,101.92 L75.4562569,95.3777778 L150.645626,95.3777778 L150.645626,101.92 L75.4562569,101.92 L75.4562569,101.92 Z" id="paint"></path>
                        </g>
                    </g>
                </g>
            </g>
        </g>
    </g>
</svg>