<?xml version="1.0" encoding="UTF-8" standalone="no"?>
<svg width="58px" height="58px" viewBox="0 0 58 58" version="1.1" xmlns="http://www.w3.org/2000/svg" xmlns:xlink="http://www.w3.org/1999/xlink">
    <!-- Generator: Sketch 39.1 (31720) - http://www.bohemiancoding.com/sketch -->
    <title>home</title>
    <desc>Created with Sketch.</desc>
    <defs></defs>
    <g id="Page-1" stroke="none" stroke-width="1" fill="none" fill-rule="evenodd">
        <g id="100-Basic-Element-Icons-Dark" transform="translate(-405.000000, -797.000000)" fill="#292F36">
            <path d="M407.19244,854.950086 L427.073883,854.950086 C427.17354,854.950086 427.323024,855 427.42268,855 L440.876289,855 C440.975945,855 441.12543,855 441.225086,854.950086 L460.957045,854.950086 C462.103093,854.950086 463,854.051635 463,852.903614 L463,825.950086 C463,825.800344 463,825.700516 462.950172,825.550775 C462.950172,825.450947 462.900344,825.401033 462.850515,825.301205 C462.850515,825.251291 462.850515,825.201377 462.800687,825.201377 C462.750859,825.101549 462.701031,825.001721 462.651203,824.951807 C462.651203,824.901893 462.601375,824.901893 462.601375,824.851979 C462.551546,824.752151 462.45189,824.652324 462.352234,824.552496 L435.445017,797.598967 C434.647766,796.800344 433.352234,796.800344 432.554983,797.598967 L405.647766,824.552496 C405.54811,824.652324 405.448454,824.752151 405.398625,824.851979 C405.398625,824.901893 405.348797,824.901893 405.348797,824.951807 C405.298969,825.051635 405.249141,825.101549 405.199313,825.201377 C405.199313,825.251291 405.149485,825.301205 405.149485,825.351119 C405.099656,825.450947 405.099656,825.500861 405.049828,825.600688 C405,825.75043 405,825.850258 405,826 L405,852.953528 C405.199313,854.051635 406.09622,854.950086 407.19244,854.950086 L407.19244,854.950086 Z M438.833333,850.857143 L429.465636,850.857143 L429.465636,841.473322 L438.833333,841.473322 L438.833333,850.857143 L438.833333,850.857143 Z M434.099656,801.94148 L456.073883,823.953528 L412.12543,823.953528 L434.099656,801.94148 L434.099656,801.94148 Z M409.235395,828.046472 L458.914089,828.046472 L458.914089,850.907057 L442.919244,850.907057 L442.919244,839.42685 C442.919244,838.27883 442.022337,837.380379 440.876289,837.380379 L427.42268,837.380379 C426.276632,837.380379 425.379725,838.27883 425.379725,839.42685 L425.379725,850.857143 L409.235395,850.857143 L409.235395,828.046472 L409.235395,828.046472 Z" id="home"></path>
        </g>
    </g>
</svg>