<?xml version="1.0" encoding="UTF-8" standalone="no"?>
<svg width="48px" height="42px" viewBox="0 0 48 42" version="1.1" xmlns="http://www.w3.org/2000/svg" xmlns:xlink="http://www.w3.org/1999/xlink">
    <!-- Generator: Sketch 39.1 (31720) - http://www.bohemiancoding.com/sketch -->
    <title>Icon</title>
    <desc>Created with Sketch.</desc>
    <defs></defs>
    <g id="Page-1" stroke="none" stroke-width="1" fill="none" fill-rule="evenodd">
        <g id="Desktop-HD" transform="translate(-1237.000000, -2381.000000)" stroke="#292F36" stroke-width="4">
            <g id="Group-19" transform="translate(-1.000000, 0.000000)">
                <g id="Group-11" transform="translate(906.000000, 2074.000000)">
                    <g id="Icon" transform="translate(334.000000, 309.000000)">
                        <path d="M0,15.5612 C0,14.9332 0.64,14.0002 1.271,14.0002 L12.193,14.0002 C12.828,14.0002 13,14.9382 13,15.5612 L13,36.8632 C13,37.4912 12.825,38.0002 12.193,38.0002 L1.271,38.0002 C0.636,38.0002 0,37.4862 0,36.8632 L0,15.5612 L0,15.5612 Z" id="Stroke-70"></path>
                        <path d="M29,12 L41.372,12 C42.837,12 44.129,15.754 43.837,17.129 C43.837,17.129 40.298,31.436 39.438,33.659 C38.577,35.882 35.696,36 35.078,36 L33,36" id="Stroke-72" stroke-linecap="round" stroke-linejoin="bevel"></path>
                        <path d="M14.0294,17.1202 L16.2954,16.2212 L21.1254,7.6552 C21.1254,7.6552 20.9344,3.1152 21.4154,1.7492 C21.8974,0.3842 26.3254,-2.1048 28.9324,3.4742 C31.5384,9.0522 28.9324,12.1702 28.9324,12.1702" id="Stroke-74" stroke-linecap="round"></path>
                        <path d="M21.8624,36.3777 C19.5864,35.5457 13.7284,33.3387 13.7284,33.3387" id="Stroke-76" stroke-linecap="round" stroke-linejoin="bevel"></path>
                        <path d="M22,36 L35,36" id="Stroke-78" stroke-linecap="round"></path>
                    </g>
                </g>
            </g>
        </g>
    </g>
</svg>